<?xml version="1.0" encoding="UTF-8" standalone="no"?>
<!-- Created with Inkscape (http://www.inkscape.org/) -->

<svg
   width="210mm"
   height="297mm"
   viewBox="0 0 210 297"
   version="1.1"
   id="svg1"
   inkscape:version="1.3.2 (1:1.3.2+202311252150+091e20ef0f)"
   sodipodi:docname="signature.svg"
   xml:space="preserve"
   xmlns:inkscape="http://www.inkscape.org/namespaces/inkscape"
   xmlns:sodipodi="http://sodipodi.sourceforge.net/DTD/sodipodi-0.dtd"
   xmlns="http://www.w3.org/2000/svg"
   xmlns:svg="http://www.w3.org/2000/svg"><sodipodi:namedview
     id="namedview1"
     pagecolor="#ffffff"
     bordercolor="#000000"
     borderopacity="0.25"
     inkscape:showpageshadow="2"
     inkscape:pageopacity="0.0"
     inkscape:pagecheckerboard="0"
     inkscape:deskcolor="#d1d1d1"
     inkscape:document-units="mm"
     inkscape:zoom="0.58961278"
     inkscape:cx="384.15043"
     inkscape:cy="616.50632"
     inkscape:window-width="1920"
     inkscape:window-height="1163"
     inkscape:window-x="1920"
     inkscape:window-y="0"
     inkscape:window-maximized="1"
     inkscape:current-layer="layer1" /><defs
     id="defs1"><clipPath
       clipPathUnits="userSpaceOnUse"
       id="clipPath6"><rect
         style="fill:none;stroke:#000000;stroke-width:1;stroke-linecap:square;stroke-linejoin:round;stroke-dasharray:none;stroke-dashoffset:0;stroke-opacity:1"
         id="rect7"
         width="177.69798"
         height="194.33644"
         x="62.602417"
         y="44.341587" /></clipPath></defs><g
     inkscape:label="Layer 1"
     inkscape:groupmode="layer"
     id="layer1"><path
       style="fill:#000000"
       d="m 121.36878,233.14841 c -0.27743,-0.4489 0.13234,-5.12288 0.71546,-8.16069 0.2933,-1.52797 0.59871,-3.3139 0.6787,-3.96875 0.08,-0.65484 0.60371,-3.97788 1.16382,-7.38452 0.56011,-3.40665 0.96274,-6.28392 0.89475,-6.39395 -0.068,-0.11002 -0.011,-0.49624 0.12662,-0.85825 0.13763,-0.36202 0.49847,-2.12818 0.80186,-3.92481 0.30338,-1.79663 0.66367,-3.92144 0.80064,-4.7218 0.47909,-2.79951 1.14531,-7.01717 1.21201,-7.67292 0.037,-0.3638 0.19335,-1.43536 0.34744,-2.38125 0.15408,-0.94588 0.40382,-2.85088 0.55498,-4.23333 0.15116,-1.38245 0.50322,-3.94229 0.78237,-5.68854 0.27914,-1.74625 0.64173,-5.49672 0.80574,-8.33438 0.16402,-2.83766 0.38484,-6.13352 0.49072,-7.32415 0.3374,-3.79395 -0.27975,-9.93769 -1.19401,-11.88649 -0.42799,-0.91229 -0.62928,-1.05819 -1.76149,-1.27684 -1.06365,-0.20541 -1.43302,-0.16352 -2.19991,0.24948 -1.08192,0.58265 -3.76167,3.38306 -4.31298,4.50718 -0.2109,0.43003 -0.63732,1.13905 -0.94759,1.57561 -0.31028,0.43656 -0.95343,1.52933 -1.42921,2.42837 -0.80212,1.51568 -1.44754,2.37558 -4.2799,5.7022 -1.81233,2.12857 -4.4999,2.34485 -5.71045,0.45955 -1.359,-2.11651 -1.10508,-2.19751 -3.04646,0.9718 -2.52663,4.12471 -4.18743,5.50145 -6.245895,5.1776 -1.17357,-0.18464 -2.2775,-2.89048 -2.55919,-6.27285 -0.2401,-2.88307 -0.71729,-5.68854 -0.96758,-5.68854 -0.12493,0 -0.22756,0.0298 -0.22806,0.0661 -5e-4,0.0364 -0.37003,0.95912 -0.82117,2.05052 -0.84283,2.03897 -2.851359,7.91985 -3.027209,8.86355 -0.0542,0.29104 -0.3525,1.60073 -0.66281,2.91041 -0.31031,1.30969 -0.71616,3.0361 -0.9019,3.83646 -0.18573,0.80037 -0.47145,1.93146 -0.63492,2.51354 -0.46088,1.64102 -3.02855,13.55122 -4.53472,21.03438 -1.48844,7.3951 -2.19732,10.23122 -2.90979,11.64166 -0.25727,0.50933 -0.88941,2.1762 -1.40474,3.70417 -1.59126,4.71809 -3.21765,7.60025 -4.9425,8.75867 -2.50938,1.68532 -5.40223,0.57993 -7.34226,-2.80554 -2.46119,-4.29494 -4.31613,-9.51837 -6.20125,-17.4625 -0.52549,-2.21448 -1.78698,-8.75571 -1.79865,-9.32657 -0.008,-0.40628 -0.53592,-0.44594 -0.53592,-0.0403 0,0.63111 -2.29663,4.9721 -3.55579,6.72101 -2.90403,4.03354 -4.36514,5.05466 -7.620294,5.32553 -2.769587,0.23047 -4.015619,-0.17462 -5.558814,-1.80717 -0.691224,-0.73125 -1.256771,-1.44646 -1.256771,-1.58936 0,-0.14289 -0.217805,-0.57585 -0.484011,-0.96211 -1.445552,-2.0975 -3.205626,-8.7833 -4.12028,-15.65126 -1.387756,-10.42039 -1.57522,-13.29759 -1.594604,-24.47396 -0.0159,-9.16809 0.05569,-11.36006 0.462322,-14.15521 0.684372,-4.70433 1.722097,-10.00114 2.146727,-10.95745 0.572758,-1.2899 0.944013,-2.56214 0.944013,-3.235 0,-0.34085 0.238125,-0.76844 0.529167,-0.9502 0.291041,-0.18176 0.529166,-0.47768 0.529166,-0.6576 0,-0.45496 1.238529,-1.22208 1.692076,-1.04804 0.232005,0.089 0.363187,0.49805 0.346666,1.0809 -0.01816,0.64065 0.166375,1.14306 0.582559,1.58607 0.658814,0.70127 0.552703,1.29766 -0.182378,1.02505 -0.250001,-0.0927 -0.696463,-0.4447 -0.992138,-0.78219 -0.599731,-0.68455 -0.917618,-0.7812 -0.917618,-0.27898 0,0.18406 -0.219744,0.74961 -0.488319,1.25678 -0.632045,1.19353 -1.489219,4.13319 -1.88902,6.47837 -0.173657,1.01864 -0.419579,2.32833 -0.546494,2.91042 -0.382364,1.75368 -0.493251,2.52422 -0.775102,5.38614 -0.339211,3.44433 -0.354175,20.93085 -0.02109,24.64406 0.676479,7.54134 1.588871,14.92904 2.152221,17.42668 0.693163,3.07318 1.627075,6.83043 1.817453,7.31187 0.86683,2.19206 2.099076,4.2775 3.125293,5.28922 l 1.210159,1.19307 h 2.254122 c 2.79202,0 3.820069,-0.4471 5.912329,-2.57129 1.2309,-1.24968 4.44636,-6.02088 4.44636,-6.59764 0,-0.0839 0.42001,-1.0494 0.93336,-2.14559 l 0.93336,-1.99306 -0.39617,-2.2957 c -1.29471,-7.50245 -2.39426,-16.07381 -3.03866,-23.68735 -0.71789,-8.48198 -0.81314,-10.12207 -0.81314,-14.0023 0,-2.26691 -0.0983,-4.12166 -0.21838,-4.12166 -0.12011,0 -0.83659,0.76196 -1.59218,1.69324 -2.83803,3.49792 -4.815426,4.78717 -7.057253,4.60126 -1.847011,-0.15317 -2.870825,-0.9144 -3.302254,-2.45531 -0.591009,-2.11088 0.413564,-7.29601 2.256001,-11.64439 0.906932,-2.14048 2.123646,-4.79092 2.307743,-5.02709 0.113434,-0.14552 0.909721,-1.34979 1.769528,-2.67615 1.716495,-2.64792 3.005835,-3.87701 4.636335,-4.41968 l 1.06817,-0.35551 0.18056,-5.66704 c 0.15936,-5.00161 0.43534,-9.6826 0.90349,-15.32433 0.80666,-9.721134 2.63417,-19.035404 4.33214,-22.079504 0.49946,-0.89543 2.40096,-1.99758 3.44636,-1.99758 0.39024,0 1.13796,0.32742 1.66159,0.7276 1.74697,1.3351 2.30434,4.39166 2.30382,12.63385 -4.8e-4,7.722384 -0.32912,11.379544 -2.10418,23.415634 -0.36984,2.50776 -1.74755,7.8643 -2.95857,11.50296 l -1.05458,3.16858 0.67022,2.65225 c 1.12423,4.44893 1.42479,6.43467 2.46385,16.2783 0.11521,1.0914 0.20064,5.79437 0.18984,10.45104 -0.019,8.1848 -0.30452,12.15516 -1.16074,16.13958 -0.9894,4.60417 -1.59631,6.81391 -2.92271,10.64141 -0.55919,1.61364 -0.5618,1.6932 -0.13417,4.10104 0.88421,4.97863 1.16354,6.44815 1.42232,7.48255 0.14562,0.58209 0.46067,1.95131 0.70012,3.04271 0.38336,1.74731 1.5365,5.67192 3.04551,10.36505 0.43576,1.35525 1.76836,4.06599 3.03386,6.17141 0.7333,1.22 2.45764,2.51354 3.35063,2.51354 1.1436,0 2.67015,-0.87985 3.83123,-2.20818 0.72716,-0.83191 1.39555,-2.14332 2.30347,-4.51952 l 1.27905,-3.34754 -0.6595,-0.51876 c -1.77308,-1.39471 -2.5913,-7.76931 -2.06725,-16.10539 0.72284,-11.49794 1.48804,-18.14083 4.66661,-40.51153 1.33197,-9.37441 1.83513,-11.81363 2.71389,-13.15627 0.46568,-0.71152 1.53408,-0.78701 1.87216,-0.13229 0.96354,1.86598 0.75951,20.68155 -0.37082,34.1974 -0.52889,6.32415 -1.41738,15.28358 -1.68105,16.95153 -0.31214,1.97457 0.0988,1.56245 0.47979,-0.48122 0.37455,-2.00893 1.29368,-6.53119 1.6536,-8.13594 0.13056,-0.58208 0.40268,-1.89177 0.60472,-2.91041 0.20204,-1.01865 0.6787,-3.10224 1.05924,-4.63021 0.72499,-2.91102 1.41338,-5.75535 2.30524,-9.525 0.77275,-3.26619 2.22436,-7.67213 3.047149,-9.24871 0.19322,-0.37024 0.35688,-0.79223 0.36369,-0.93775 0.0259,-0.55296 1.53706,-2.03109 1.98615,-1.94272 0.65676,0.12922 1.12525,1.94008 1.42671,5.51459 0.31313,3.71287 0.6881,5.72561 1.21708,6.53294 0.52179,0.79635 1.734735,0.80468 2.797135,0.0192 0.78438,-0.57992 2.9648,-3.66573 4.25583,-6.02299 0.47472,-0.86679 0.8377,-1.21275 1.33457,-1.27197 0.73171,-0.0872 0.84909,0.0116 2.06099,1.73499 0.67803,0.96421 0.92497,1.12448 1.73251,1.12448 1.32384,0 1.6478,-0.23135 3.55858,-2.54137 2.06963,-2.50206 2.34157,-2.90594 4.49681,-6.67872 1.87889,-3.28901 4.36225,-6.14148 5.90966,-6.78803 0.71839,-0.30016 1.32284,-0.33971 2.57496,-0.16847 1.89711,0.25944 2.27408,0.62065 3.19009,3.05675 0.53555,1.42427 0.58988,2.05282 0.60603,7.01145 0.0233,7.163 -0.10825,11.40957 -0.41845,13.50513 -0.35243,2.3809 -0.56389,4.93379 -0.39478,4.76606 0.0778,-0.0772 0.20549,-0.50363 0.28372,-0.94766 0.0782,-0.44402 0.51188,-2.28588 0.96368,-4.093 0.45179,-1.80712 0.99209,-4.05959 1.20066,-5.00547 0.20857,-0.94589 0.48739,-2.01745 0.61961,-2.38125 0.22574,-0.62116 0.71124,-2.21895 2.67313,-8.7974 0.44484,-1.49159 0.9679,-3.18823 1.16237,-3.77031 0.19446,-0.58208 0.67282,-2.1299 1.06302,-3.43958 0.3902,-1.30969 0.80371,-2.61938 0.91891,-2.91042 0.94048,-2.37595 1.33858,-3.496 1.33858,-3.76612 0,-0.17397 0.2509,-0.45059 0.55757,-0.61471 0.87001,-0.46561 1.1858,0.0391 0.80977,1.29418 -0.16996,0.56726 -0.30901,1.29137 -0.30901,1.60913 0,0.31777 -0.18011,0.92605 -0.40024,1.35174 -0.3374,0.65245 -0.34779,0.94297 -0.0662,1.85012 0.54193,1.74557 1.19096,2.32818 3.11222,2.79372 1.65988,0.40221 1.8258,0.39387 4.7625,-0.23939 4.57278,-0.98606 6.23334,-1.49253 7.95172,-2.42527 0.37163,-0.20172 1.34305,-0.61646 2.15871,-0.92164 0.81567,-0.30518 1.62752,-0.72897 1.80411,-0.94175 0.1766,-0.21279 0.50704,-0.38689 0.73432,-0.38689 0.42451,0 2.72477,-1.02419 2.96156,-1.31863 0.35218,-0.43794 2.11335,-1.3272 2.62849,-1.3272 0.47173,0 0.56583,0.13027 0.49794,0.6893 -0.0616,0.50745 -0.43273,0.89304 -1.40664,1.46158 -1.42456,0.83162 -1.35564,0.79854 -5.29167,2.54019 -1.45521,0.64392 -3.12208,1.38844 -3.70416,1.65449 -4.44876,2.03338 -10.77265,3.13368 -13.81536,2.40375 -1.46217,-0.35077 -2.74676,-1.45509 -3.25265,-2.79618 -0.23571,-0.62489 -0.34687,-0.70896 -0.52248,-0.39516 -0.32276,0.57673 -3.73925,12.00081 -6.36916,21.29724 -1.06697,3.77163 -1.68988,6.63783 -3.5076,16.13958 -0.5819,3.04173 -1.94389,11.87545 -2.42723,15.74271 -0.22734,1.81901 -0.58032,4.37886 -0.7844,5.68854 -0.20408,1.30969 -0.42247,3.15516 -0.4853,4.10104 -0.0628,0.94589 -0.25482,2.61277 -0.42664,3.70417 -0.17181,1.09141 -0.48225,3.05594 -0.68986,4.36563 -0.20761,1.30968 -0.43091,2.73843 -0.49623,3.175 -0.24046,1.60702 -0.93059,5.05577 -1.20454,6.01927 -0.15515,0.5457 -0.38743,1.37914 -0.51618,1.85208 -0.12875,0.47294 -0.30147,1.03849 -0.38382,1.25677 -0.0823,0.21828 -0.27595,0.89065 -0.43024,1.49415 -0.27933,1.09262 -0.89361,1.64874 -1.2264,1.11029 z m 1.92873,-8.35409 c -0.0671,-0.25743 -0.12638,-0.11087 -0.13177,0.32569 -0.005,0.43657 0.0495,0.64719 0.12197,0.46806 0.0725,-0.17913 0.0769,-0.53632 0.01,-0.79375 z m 0.25646,-1.72483 c -0.0734,-0.1819 -0.13345,-0.0331 -0.13345,0.33073 0,0.3638 0.0601,0.51263 0.13345,0.33073 0.0734,-0.1819 0.0734,-0.47956 0,-0.66146 z m 1.06385,-6.86263 c -0.0845,-0.21106 -0.14716,-0.14837 -0.15986,0.15985 -0.0115,0.27892 0.0511,0.43519 0.13897,0.34727 0.0879,-0.0879 0.0973,-0.31612 0.0209,-0.50712 z m -43.773934,-4.77903 c 0.38077,-0.58347 0.51818,-1.1853 1.55548,-6.81303 0.74799,-4.0581 1.00539,-5.68754 1.29567,-8.20208 0.14278,-1.23693 0.31542,-2.49193 0.38363,-2.7889 0.22828,-0.99379 0.71684,-5.52356 0.81215,-7.52985 0.0519,-1.09141 0.16245,-2.46062 0.2458,-3.04271 0.16967,-1.18498 0.47403,-5.56273 1.06691,-15.34583 0.42086,-6.94445 0.53182,-22.59466 0.16767,-23.64646 -0.0992,-0.28656 -0.82787,0.63218 -0.82787,1.04383 0,0.266 -0.16292,0.57884 -0.36205,0.69521 -0.2371,0.13856 -0.47028,1.21603 -0.67567,3.122 -0.47821,4.43772 -0.50309,4.63981 -0.79776,6.48229 -0.34244,2.14108 -0.96586,6.62827 -1.61741,11.64167 -0.27422,2.11005 -0.56251,4.25318 -0.64064,4.7625 -0.20895,1.36212 -1.63065,13.44294 -1.96163,16.66875 -0.64993,6.33452 -0.8965,13.29044 -0.60492,17.06563 0.26062,3.37439 0.92632,6.48229 1.38848,6.48229 0.10101,0 0.35848,-0.26789 0.57216,-0.59531 z m 4.08643,-15.3293 c -0.0845,-0.21107 -0.14716,-0.14837 -0.15985,0.15985 -0.0115,0.27892 0.0511,0.43519 0.13896,0.34727 0.0879,-0.0879 0.0973,-0.31613 0.0209,-0.50712 z m -23.53533,-8.08633 c 0.1638,-0.69122 0.6573,-2.5805 1.09665,-4.19839 1.13693,-4.18664 2.11963,-10.00957 2.3868,-14.14282 0.39265,-6.07472 -0.009,-17.61662 -0.7908,-22.73535 -0.1445,-0.94589 -0.37182,-2.51055 -0.50516,-3.47703 -0.33519,-2.42956 -1.30692,-7.12548 -1.57279,-7.60057 -0.16175,-0.28903 -0.40624,0.0202 -0.92933,1.17551 -0.39041,0.86224 -1.54201,3.2444 -2.55912,5.29368 l -1.84929,3.72597 0.14555,2.3987 c 0.08,1.31928 0.1512,3.39306 0.15811,4.6084 0.0168,2.95867 0.7111,13.22141 1.20553,17.82013 0.37892,3.52432 0.7604,6.33283 1.95865,14.41979 0.29108,1.96453 0.53002,3.66117 0.53097,3.77031 9.6e-4,0.10914 0.0973,0.19844 0.21407,0.19844 0.11678,0 0.34635,-0.56555 0.51016,-1.25677 z M 49.31966,152.21493 c 1.547181,-0.78931 4.888996,-4.41199 6.020846,-6.52687 0.29769,-0.55624 0.4927,-16.90907 0.20507,-17.1967 -0.32191,-0.32191 -1.403931,0.42202 -1.797494,0.78165 -1.073937,0.98135 -1.666794,1.74809 -2.309966,2.77981 -0.659697,1.05823 -0.754821,1.36613 -1.322564,2.14654 -0.567744,0.78042 -1.275398,1.91151 -1.572566,2.51354 -0.867478,1.75743 -1.628829,3.55732 -1.628829,3.85068 0,0.14935 -0.313311,0.95956 -0.696247,1.80045 -0.894449,1.96413 -1.170244,3.30623 -1.336193,6.5023 -0.131954,2.54135 -0.120866,2.60488 0.565681,3.24115 0.884653,0.81987 2.393726,0.86174 3.872262,0.10745 z m 9.015536,-11.56607 c 0.67902,-1.41722 1.50126,-3.29114 1.8272,-4.16426 0.32593,-0.87313 0.6931,-1.70061 0.81593,-1.83886 0.61828,-0.69586 -0.30643,-3.16797 -1.87076,-5.00125 -0.45264,-0.53047 -1.85738,-1.33515 -2.0298,-1.16274 -0.22173,0.22174 -0.42488,14.74959 -0.2062,14.74679 0.12598,-0.002 0.78461,-1.16246 1.46363,-2.57968 z m 4.778,-11.96947 c 1.23642,-3.69038 2.40837,-8.78423 2.95234,-12.8323 1.12892,-8.40107 1.29114,-10.25628 1.60794,-18.388544 0.11859,-3.04429 -0.29585,-10.32279 -0.66607,-11.69769 -0.14719,-0.54663 -0.53144,-1.29356 -0.85387,-1.65983 -0.64876,-0.73696 -2.30605,-1.21838 -2.30605,-0.66987 0,0.17944 -0.6028,0.9259 -1.33957,1.65881 -1.29631,1.28951 -1.36145,1.42744 -2.01698,4.27087 -1.21773,5.28198 -1.66795,8.35042 -2.46925,16.828964 -0.35381,3.74365 -1.23714,20.74763 -1.09929,21.16118 0.0495,0.14854 0.36163,0.27007 0.69358,0.27007 0.33196,0 1.00665,0.35529 1.49931,0.78953 0.49266,0.43424 0.96612,0.79142 1.05213,0.79375 0.086,0.002 0.48617,0.61014 0.88924,1.35071 0.40307,0.74057 0.82126,1.24659 0.92931,1.12448 0.10805,-0.1221 0.6153,-1.47216 1.12723,-3.00013 z"
       id="path7"
       sodipodi:nodetypes="cssssssssssssssssssssssssssssssssssssssssssssssssssscssssssssssssscsssscssssssssssscsssssssscssssssssssssscssssssssssssssssssssssssssssssssssssssssssscsssssssssssssssssssssssssssccccsccsscssssssssssssssssssssssssssssssssssssscsssssssssssssssssssssssscssssssssssssscsss"
       inkscape:export-filename="../figs/formal/signature_new.pdf"
       inkscape:export-xdpi="96"
       inkscape:export-ydpi="96" /></g></svg>
