<?xml version="1.0" encoding="UTF-8" standalone="no"?>
<!-- Created with Inkscape (http://www.inkscape.org/) -->

<svg
   version="1.1"
   id="svg854"
   width="587"
   height="470"
   viewBox="0 0 587 470"
   sodipodi:docname="methodology_smaller.svg"
   inkscape:version="1.1.2 (b8e25be833, 2022-02-05)"
   xmlns:inkscape="http://www.inkscape.org/namespaces/inkscape"
   xmlns:sodipodi="http://sodipodi.sourceforge.net/DTD/sodipodi-0.dtd"
   xmlns="http://www.w3.org/2000/svg"
   xmlns:svg="http://www.w3.org/2000/svg">
  <defs
     id="defs858">
    <marker
       style="overflow:visible"
       id="marker47694"
       refX="0"
       refY="0"
       orient="auto"
       inkscape:stockid="StopL"
       inkscape:isstock="true">
      <path
         transform="scale(0.8)"
         style="fill:none;fill-opacity:0.75;fill-rule:evenodd;stroke:context-stroke;stroke-width:1pt"
         d="M 0,5.65 V -5.65"
         id="path47692" />
    </marker>
    <marker
       style="overflow:visible"
       id="StopL"
       refX="0"
       refY="0"
       orient="auto"
       inkscape:stockid="StopL"
       inkscape:isstock="true">
      <path
         transform="scale(0.8)"
         style="fill:none;fill-opacity:0.75;fill-rule:evenodd;stroke:context-stroke;stroke-width:1pt"
         d="M 0,5.65 V -5.65"
         id="path8267" />
    </marker>
    <marker
       inkscape:stockid="DistanceStart"
       orient="auto"
       refY="0"
       refX="0"
       id="DistanceStart"
       style="overflow:visible"
       inkscape:isstock="true">
      <g
         id="g2300">
        <path
           id="path2306"
           d="M 0,0 H 2"
           style="fill:none;stroke:context-fill;stroke-width:1.15;stroke-linecap:square" />
        <path
           id="path2302"
           d="M 0,0 13,4 9,0 13,-4 Z"
           style="fill:context-stroke;fill-rule:evenodd;stroke:none" />
        <path
           id="path2304"
           d="M 0,-4 V 40"
           style="fill:none;stroke:context-stroke;stroke-width:1;stroke-linecap:square" />
      </g>
    </marker>
    <rect
       x="290.54044"
       y="327.79898"
       width="22.131224"
       height="24.494577"
       id="rect26517" />
    <marker
       style="overflow:visible"
       id="Arrow1Send"
       refX="0"
       refY="0"
       orient="auto"
       inkscape:stockid="Arrow1Send"
       inkscape:isstock="true">
      <path
         transform="matrix(-0.2,0,0,-0.2,-1.2,0)"
         style="fill:context-stroke;fill-rule:evenodd;stroke:context-stroke;stroke-width:1pt"
         d="M 0,0 5,-5 -12.5,0 5,5 Z"
         id="path8113" />
    </marker>
    <rect
       x="242.6806"
       y="320.22086"
       width="21.179838"
       height="18.22776"
       id="rect10291" />
    <marker
       style="overflow:visible"
       id="TriangleOutL"
       refX="0"
       refY="0"
       orient="auto"
       inkscape:stockid="TriangleOutL"
       inkscape:isstock="true">
      <path
         transform="scale(0.8)"
         style="fill:context-stroke;fill-rule:evenodd;stroke:context-stroke;stroke-width:1pt"
         d="M 5.77,0 -2.88,5 V -5 Z"
         id="path8240" />
    </marker>
    <marker
       style="overflow:visible"
       id="Arrow2Lend"
       refX="0"
       refY="0"
       orient="auto"
       inkscape:stockid="Arrow2Lend"
       inkscape:isstock="true">
      <path
         transform="matrix(-1.1,0,0,-1.1,-1.1,0)"
         d="M 8.7185878,4.0337352 -2.2072895,0.01601326 8.7185884,-4.0017078 c -1.7454984,2.3720609 -1.7354408,5.6174519 -6e-7,8.035443 z"
         style="fill:context-stroke;fill-rule:evenodd;stroke:context-stroke;stroke-width:0.625;stroke-linejoin:round"
         id="path8119" />
    </marker>
    <marker
       style="overflow:visible"
       id="Arrow1Lend"
       refX="0"
       refY="0"
       orient="auto"
       inkscape:stockid="Arrow1Lend"
       inkscape:isstock="true">
      <path
         transform="matrix(-0.8,0,0,-0.8,-10,0)"
         style="fill:context-stroke;fill-rule:evenodd;stroke:context-stroke;stroke-width:1pt"
         d="M 0,0 5,-5 -12.5,0 5,5 Z"
         id="path1527" />
    </marker>
    <marker
       style="overflow:visible"
       id="TriangleOutL-2"
       refX="0"
       refY="0"
       orient="auto"
       inkscape:stockid="TriangleOutL"
       inkscape:isstock="true">
      <path
         transform="scale(0.8)"
         style="fill:context-stroke;fill-rule:evenodd;stroke:context-stroke;stroke-width:1pt"
         d="M 5.77,0 -2.88,5 V -5 Z"
         id="path8240-9" />
    </marker>
    <marker
       style="overflow:visible"
       id="TriangleOutL-27"
       refX="0"
       refY="0"
       orient="auto"
       inkscape:stockid="TriangleOutL"
       inkscape:isstock="true">
      <path
         transform="scale(0.8)"
         style="fill:context-stroke;fill-rule:evenodd;stroke:context-stroke;stroke-width:1pt"
         d="M 5.77,0 -2.88,5 V -5 Z"
         id="path8240-0" />
    </marker>
    <rect
       x="290.54044"
       y="327.79898"
       width="22.131224"
       height="24.494577"
       id="rect26517-3" />
    <rect
       x="290.54044"
       y="327.79898"
       width="22.131224"
       height="24.494577"
       id="rect26517-3-0" />
    <marker
       style="overflow:visible"
       id="marker47694-2"
       refX="0"
       refY="0"
       orient="auto"
       inkscape:stockid="StopL"
       inkscape:isstock="true">
      <path
         transform="scale(0.8)"
         style="fill:none;fill-opacity:0.75;fill-rule:evenodd;stroke:context-stroke;stroke-width:1pt"
         d="M 0,5.65 V -5.65"
         id="path47692-6" />
    </marker>
    <marker
       style="overflow:visible"
       id="StopL-1"
       refX="0"
       refY="0"
       orient="auto"
       inkscape:stockid="StopL"
       inkscape:isstock="true">
      <path
         transform="scale(0.8)"
         style="fill:none;fill-opacity:0.75;fill-rule:evenodd;stroke:context-stroke;stroke-width:1pt"
         d="M 0,5.65 V -5.65"
         id="path8267-8" />
    </marker>
    <marker
       style="overflow:visible"
       id="marker47694-2-9"
       refX="0"
       refY="0"
       orient="auto"
       inkscape:stockid="StopL"
       inkscape:isstock="true">
      <path
         transform="scale(0.8)"
         style="fill:none;fill-opacity:0.75;fill-rule:evenodd;stroke:context-stroke;stroke-width:1pt"
         d="M 0,5.65 V -5.65"
         id="path47692-6-2" />
    </marker>
    <marker
       style="overflow:visible"
       id="StopL-1-0"
       refX="0"
       refY="0"
       orient="auto"
       inkscape:stockid="StopL"
       inkscape:isstock="true">
      <path
         transform="scale(0.8)"
         style="fill:none;fill-opacity:0.75;fill-rule:evenodd;stroke:context-stroke;stroke-width:1pt"
         d="M 0,5.65 V -5.65"
         id="path8267-8-2" />
    </marker>
    <marker
       style="overflow:visible"
       id="marker47694-2-9-7"
       refX="0"
       refY="0"
       orient="auto"
       inkscape:stockid="StopL"
       inkscape:isstock="true">
      <path
         transform="scale(0.8)"
         style="fill:none;fill-opacity:0.75;fill-rule:evenodd;stroke:context-stroke;stroke-width:1pt"
         d="M 0,5.65 V -5.65"
         id="path47692-6-2-5" />
    </marker>
    <marker
       style="overflow:visible"
       id="StopL-1-0-9"
       refX="0"
       refY="0"
       orient="auto"
       inkscape:stockid="StopL"
       inkscape:isstock="true">
      <path
         transform="scale(0.8)"
         style="fill:none;fill-opacity:0.75;fill-rule:evenodd;stroke:context-stroke;stroke-width:1pt"
         d="M 0,5.65 V -5.65"
         id="path8267-8-2-2" />
    </marker>
    <marker
       style="overflow:visible"
       id="marker47694-2-9-8"
       refX="0"
       refY="0"
       orient="auto"
       inkscape:stockid="StopL"
       inkscape:isstock="true">
      <path
         transform="scale(0.8)"
         style="fill:none;fill-opacity:0.75;fill-rule:evenodd;stroke:context-stroke;stroke-width:1pt"
         d="M 0,5.65 V -5.65"
         id="path47692-6-2-9" />
    </marker>
    <marker
       style="overflow:visible"
       id="StopL-1-0-3"
       refX="0"
       refY="0"
       orient="auto"
       inkscape:stockid="StopL"
       inkscape:isstock="true">
      <path
         transform="scale(0.8)"
         style="fill:none;fill-opacity:0.75;fill-rule:evenodd;stroke:context-stroke;stroke-width:1pt"
         d="M 0,5.65 V -5.65"
         id="path8267-8-2-1" />
    </marker>
    <marker
       style="overflow:visible"
       id="marker47694-2-9-8-3"
       refX="0"
       refY="0"
       orient="auto"
       inkscape:stockid="StopL"
       inkscape:isstock="true">
      <path
         transform="scale(0.8)"
         style="fill:none;fill-opacity:0.75;fill-rule:evenodd;stroke:context-stroke;stroke-width:1pt"
         d="M 0,5.65 V -5.65"
         id="path47692-6-2-9-7" />
    </marker>
    <marker
       style="overflow:visible"
       id="StopL-1-0-3-3"
       refX="0"
       refY="0"
       orient="auto"
       inkscape:stockid="StopL"
       inkscape:isstock="true">
      <path
         transform="scale(0.8)"
         style="fill:none;fill-opacity:0.75;fill-rule:evenodd;stroke:context-stroke;stroke-width:1pt"
         d="M 0,5.65 V -5.65"
         id="path8267-8-2-1-4" />
    </marker>
    <marker
       style="overflow:visible"
       id="marker47694-3"
       refX="0"
       refY="0"
       orient="auto"
       inkscape:stockid="StopL"
       inkscape:isstock="true">
      <path
         transform="scale(0.8)"
         style="fill:none;fill-opacity:0.75;fill-rule:evenodd;stroke:context-stroke;stroke-width:1pt"
         d="M 0,5.65 V -5.65"
         id="path47692-8" />
    </marker>
    <marker
       style="overflow:visible"
       id="StopL-3"
       refX="0"
       refY="0"
       orient="auto"
       inkscape:stockid="StopL"
       inkscape:isstock="true">
      <path
         transform="scale(0.8)"
         style="fill:none;fill-opacity:0.75;fill-rule:evenodd;stroke:context-stroke;stroke-width:1pt"
         d="M 0,5.65 V -5.65"
         id="path8267-7" />
    </marker>
    <marker
       style="overflow:visible"
       id="marker47694-3-1"
       refX="0"
       refY="0"
       orient="auto"
       inkscape:stockid="StopL"
       inkscape:isstock="true">
      <path
         transform="scale(0.8)"
         style="fill:none;fill-opacity:0.75;fill-rule:evenodd;stroke:context-stroke;stroke-width:1pt"
         d="M 0,5.65 V -5.65"
         id="path47692-8-6" />
    </marker>
    <marker
       style="overflow:visible"
       id="StopL-3-3"
       refX="0"
       refY="0"
       orient="auto"
       inkscape:stockid="StopL"
       inkscape:isstock="true">
      <path
         transform="scale(0.8)"
         style="fill:none;fill-opacity:0.75;fill-rule:evenodd;stroke:context-stroke;stroke-width:1pt"
         d="M 0,5.65 V -5.65"
         id="path8267-7-6" />
    </marker>
    <rect
       x="290.54044"
       y="327.79898"
       width="22.131224"
       height="24.494577"
       id="rect26517-3-1" />
    <rect
       x="290.54044"
       y="327.79898"
       width="22.131224"
       height="24.494577"
       id="rect26517-3-1-6" />
    <rect
       x="290.54044"
       y="327.79898"
       width="22.131224"
       height="24.494577"
       id="rect26517-3-1-9" />
    <rect
       x="290.54044"
       y="327.79898"
       width="22.131224"
       height="24.494577"
       id="rect26517-3-16" />
    <rect
       x="290.54044"
       y="327.79898"
       width="22.131224"
       height="24.494577"
       id="rect26517-3-16-9" />
  </defs>
  <sodipodi:namedview
     id="namedview856"
     pagecolor="#ffffff"
     bordercolor="#666666"
     borderopacity="1.0"
     inkscape:pageshadow="2"
     inkscape:pageopacity="0.0"
     inkscape:pagecheckerboard="0"
     showgrid="false"
     inkscape:zoom="8.0351966"
     inkscape:cx="376.54892"
     inkscape:cy="361.51872"
     inkscape:window-width="2560"
     inkscape:window-height="1377"
     inkscape:window-x="-8"
     inkscape:window-y="32"
     inkscape:window-maximized="1"
     inkscape:current-layer="g860"
     inkscape:snap-others="true"
     inkscape:object-nodes="false"
     height="596px"
     inkscape:snap-object-midpoints="true" />
  <g
     inkscape:groupmode="layer"
     inkscape:label="Image"
     id="g860">
    <rect
       style="opacity:0.1;fill:#008080;fill-rule:evenodd;stroke:#ff0000;stroke-width:0.947702;stroke-miterlimit:4;stroke-dasharray:5.68621, 0.947702;stroke-dashoffset:0"
       id="rect2103"
       width="312.12253"
       height="468.42673"
       x="-0.1790228"
       y="1.3277512" />
    <path
       style="fill:none;stroke:#002fda;stroke-width:1.99222;stroke-linecap:butt;stroke-linejoin:miter;stroke-miterlimit:4;stroke-dasharray:none;stroke-opacity:1"
       d="m 220.58635,398.06449 6.50331,11.04644"
       id="path68542-1-2-5-3" />
    <rect
       style="opacity:0.1;fill:#00ff00;fill-rule:evenodd;stroke:#ff0000;stroke-width:0.65978;stroke-miterlimit:4;stroke-dasharray:3.95868, 0.65978;stroke-dashoffset:0"
       id="rect2103-3"
       width="587.31543"
       height="120.65643"
       x="0.33341679"
       y="1.3248695" />
    <ellipse
       style="opacity:1;fill:#ffffff;stroke:#ff001d;stroke-width:0.769314;stroke-miterlimit:4;stroke-dasharray:none;stroke-opacity:1"
       id="path2557-3"
       cx="375.80954"
       cy="280.73853"
       rx="64.160385"
       ry="61.056007" />
    <ellipse
       style="fill:#ffffff;stroke:#ff001d;stroke-width:0.681357;stroke-miterlimit:4;stroke-dasharray:none;stroke-opacity:1"
       id="path2557-3-5"
       cx="436.94131"
       cy="179.51678"
       rx="55.741592"
       ry="55.12627" />
    <path
       style="fill:none;stroke:#000000;stroke-width:3.149;stroke-linecap:butt;stroke-linejoin:miter;stroke-miterlimit:4;stroke-dasharray:none;stroke-opacity:1"
       d="m 412.82211,178.14756 49.99179,0.57898"
       id="path1243" />
    <path
       style="fill:none;stroke:#000000;stroke-width:1px;stroke-linecap:butt;stroke-linejoin:miter;stroke-opacity:1;marker-end:url(#Arrow1Lend)"
       d="m 437.75039,178.38035 0.14932,-23.73598"
       id="path1442" />
    <path
       style="fill:none;stroke:#ff0000;stroke-width:1.13891px;stroke-linecap:butt;stroke-linejoin:miter;stroke-opacity:1"
       d="M 312.41523,470.208 312.30532,122.97732"
       id="path1067-6" />
    <path
       style="fill:none;stroke:#d70606;stroke-width:1.48303px;stroke-linecap:butt;stroke-linejoin:miter;stroke-opacity:1"
       d="m 312.30102,122.97736 274.67939,0.25754"
       id="path1243-5" />
    <text
       xml:space="preserve"
       style="font-style:normal;font-weight:normal;font-size:16px;line-height:1.25;font-family:sans-serif;fill:#000000;fill-opacity:1;stroke:none"
       x="88.598686"
       y="397.12677"
       id="text12217"><tspan
         sodipodi:role="line"
         id="tspan12215"
         x="88.598686"
         y="397.12677"
         style="font-size:16px">t=t<tspan
   style="font-size:65%;baseline-shift:sub"
   id="tspan19685">0</tspan></tspan></text>
    <text
       xml:space="preserve"
       style="font-style:normal;font-weight:normal;font-size:16px;line-height:1.25;font-family:sans-serif;fill:#000000;fill-opacity:1;stroke:none"
       x="12.696152"
       y="419.59494"
       id="text12217-7"><tspan
         sodipodi:role="line"
         id="tspan12215-8"
         x="12.696152"
         y="419.59494"
         style="font-size:16px">Drone starting position</tspan></text>
    <text
       xml:space="preserve"
       style="font-style:normal;font-weight:normal;font-size:16px;line-height:1.25;font-family:sans-serif;fill:#000000;fill-opacity:1;stroke:none"
       x="148.67358"
       y="281.21442"
       id="text12217-7-9"><tspan
         sodipodi:role="line"
         id="tspan12215-8-7"
         x="148.67358"
         y="281.21442"
         style="font-size:16px">Inspecting area 1</tspan></text>
    <text
       xml:space="preserve"
       style="font-style:normal;font-weight:normal;font-size:16px;line-height:1.25;font-family:sans-serif;fill:#000000;fill-opacity:1;stroke:none"
       x="366.74411"
       y="96.076355"
       id="text12217-7-9-9"><tspan
         sodipodi:role="line"
         id="tspan12215-8-7-7"
         x="366.74411"
         y="96.076355"
         style="font-size:16px">Inspecting area 2</tspan></text>
    <text
       xml:space="preserve"
       style="font-style:normal;font-variant:normal;font-weight:bold;font-stretch:normal;font-size:16px;line-height:1.25;font-family:sans-serif;-inkscape-font-specification:'sans-serif, Bold';font-variant-ligatures:normal;font-variant-caps:normal;font-variant-numeric:normal;font-variant-east-asian:normal;fill:#0085bc;fill-opacity:0.720548;stroke:none"
       x="35.177956"
       y="139.57915"
       id="text12217-7-1"><tspan
         sodipodi:role="line"
         id="tspan12215-8-6"
         x="35.177956"
         y="139.57915"
         style="font-style:normal;font-variant:normal;font-weight:bold;font-stretch:normal;font-size:16px;font-family:sans-serif;-inkscape-font-specification:'sans-serif, Bold';font-variant-ligatures:normal;font-variant-caps:normal;font-variant-numeric:normal;font-variant-east-asian:normal;fill:#0085bc;fill-opacity:0.720548">Region of interest of area 1</tspan></text>
    <text
       xml:space="preserve"
       style="font-style:normal;font-variant:normal;font-weight:bold;font-stretch:normal;font-size:16px;line-height:1.25;font-family:sans-serif;-inkscape-font-specification:'sans-serif, Bold';font-variant-ligatures:normal;font-variant-caps:normal;font-variant-numeric:normal;font-variant-east-asian:normal;fill:#00b100;fill-opacity:0.567123;stroke:none"
       x="331.64191"
       y="21.215265"
       id="text12217-7-1-7"><tspan
         sodipodi:role="line"
         id="tspan12215-8-6-5"
         x="331.64191"
         y="21.215265"
         style="font-style:normal;font-variant:normal;font-weight:bold;font-stretch:normal;font-size:16px;font-family:sans-serif;-inkscape-font-specification:'sans-serif, Bold';font-variant-ligatures:normal;font-variant-caps:normal;font-variant-numeric:normal;font-variant-east-asian:normal;fill:#00b100;fill-opacity:0.567123">Region of interest of area 2</tspan></text>
    <text
       xml:space="preserve"
       style="font-style:normal;font-weight:normal;font-size:16px;line-height:1.25;font-family:sans-serif;fill:#000000;fill-opacity:1;stroke:none"
       x="207.00534"
       y="262.87918"
       id="text12217-5"><tspan
         sodipodi:role="line"
         id="tspan12215-6"
         x="207.00534"
         y="262.87918"
         style="font-size:16px">t=t<tspan
   style="font-size:65%;baseline-shift:sub"
   id="tspan22471">1</tspan></tspan></text>
    <text
       xml:space="preserve"
       style="font-style:normal;font-weight:normal;font-size:16px;line-height:1.25;font-family:sans-serif;fill:#000000;fill-opacity:1;stroke:none"
       x="420.492"
       y="78.801025"
       id="text12217-5-2"><tspan
         sodipodi:role="line"
         id="tspan12215-6-9"
         x="420.492"
         y="78.801025"
         style="font-size:16px">t=t<tspan
   style="font-size:65%;baseline-shift:sub"
   id="tspan24699">2</tspan></tspan></text>
    <path
       d="m 189.49899,396.55668 c -0.21179,1.1993 -0.0883,2.25347 0.40565,3.34306 0.42458,0.95312 1.03929,1.68555 1.89611,2.26487 0.45476,0.30797 1.71678,0.74801 2.26976,0.79115 1.08283,0.0842 2.00763,-0.0991 3.01938,-0.61411 0.73767,-0.37314 1.28341,-0.7948 1.79362,-1.37818 0.50711,-0.59094 0.71435,-0.95543 1.03452,-1.81754 0.37345,-1.00556 0.40782,-1.24354 0.37972,-2.65143 0.002,-0.0863 1.61078,-0.61171 2.0151,-0.65173 0.27649,-0.035 0.36666,-0.004 2.43483,0.71761 2.06818,0.7209 2.15831,0.75233 2.3486,0.94972 0.285,0.28038 1.17984,1.67816 1.12456,1.74614 -0.94751,1.06784 -1.07745,1.27212 -1.45103,2.27802 -0.4186,1.1272 -0.49909,1.97292 -0.29367,3.08073 0.11609,0.6395 0.594,1.72348 0.98189,2.22715 0.66881,0.87589 1.33128,1.35016 2.41335,1.72733 0.84866,0.29581 1.22861,0.35336 2.03734,0.30433 1.43927,-0.0851 2.95844,-0.85365 3.9454,-1.99496 0.5071,-0.59096 0.71434,-0.95543 1.03452,-1.81757 0.41861,-1.12718 0.49908,-1.97291 0.29368,-3.08072 -0.11609,-0.63953 -0.59402,-1.72349 -0.98187,-2.22714 -0.66879,-0.87589 -1.33129,-1.35017 -2.41332,-1.72737 -0.9651,-0.33639 -1.196,-0.36059 -2.57271,-0.2664 -0.0845,6.2e-4 -0.52163,-1.61117 -0.53974,-1.99821 -0.0184,-0.38698 0.10215,-0.88798 0.33264,-1.36314 0.25018,-0.51192 0.75909,-1.88233 0.90296,-2.43128 0.13513,-0.50842 0.37161,-0.96883 0.64015,-1.25599 0.10775,-0.11203 0.53085,-0.44532 0.93561,-0.72854 0.57574,-0.40454 0.75832,-0.50953 0.81496,-0.45223 0.80645,0.78031 1.49457,1.20146 2.37024,1.45655 1.37363,0.3977 2.65384,0.25727 3.99131,-0.425 0.94037,-0.48365 1.66021,-1.13148 2.26406,-2.03175 0.322,-0.48074 0.81046,-1.79572 0.87832,-2.365 0.12958,-1.09058 -0.006,-2.04902 -0.43649,-3.03534 -0.43777,-0.98272 -1.04372,-1.70561 -1.91433,-2.29644 -0.45475,-0.30795 -1.71676,-0.74797 -2.26977,-0.79112 -1.03643,-0.0804 -1.96409,0.0954 -2.91445,0.55694 -1.34732,0.65979 -2.26636,1.61917 -2.85674,2.99857 -0.37487,0.88046 -0.5104,1.71325 -0.46181,2.87246 0.005,0.0829 -0.18734,0.1658 -0.84751,0.37827 -0.4632,0.15073 -0.9743,0.28454 -1.124,0.30137 -0.37894,0.0368 -0.85552,-0.0672 -1.34285,-0.28713 -0.5256,-0.24582 -1.71357,-0.65984 -2.28056,-0.79492 -0.52021,-0.1315 -0.95588,-0.34515 -1.22387,-0.60754 -0.26807,-0.26206 -1.15412,-1.65067 -1.09884,-1.71864 0.94743,-1.06781 1.07739,-1.27211 1.45088,-2.2777 0.41862,-1.12719 0.49911,-1.97295 0.29368,-3.08073 -0.11609,-0.63955 -0.59404,-1.72349 -0.98187,-2.22714 -0.66909,-0.87601 -1.33154,-1.35031 -2.41334,-1.72733 -1.06603,-0.37159 -1.76803,-0.41647 -2.89807,-0.18002 -0.66195,0.13735 -1.77379,0.68008 -2.31911,1.13276 -0.88889,0.73255 -1.38095,1.4283 -1.79968,2.55583 -0.4186,1.12716 -0.49909,1.97292 -0.29367,3.0807 0.11609,0.63954 0.59404,1.72352 0.98181,2.22717 0.66888,0.87589 1.33132,1.35019 2.41339,1.72739 0.96505,0.33637 1.19597,0.36057 2.57243,0.26629 0.0848,-3e-4 0.52286,1.62392 0.54338,2.0369 0.016,0.28022 -0.0156,0.38144 -0.8141,2.53095 -0.79834,2.14947 -0.84062,2.24731 -1.037,2.45324 -0.2872,0.30568 -1.69427,1.28817 -1.75839,1.23456 -0.99915,-0.92237 -1.19281,-1.04613 -2.15788,-1.38251 -0.82738,-0.28844 -1.22312,-0.35143 -1.97395,-0.31352 -0.72221,0.0418 -1.40061,0.22343 -2.1099,0.56911 -1.00149,0.48721 -1.71442,1.10019 -2.33704,2.01896 -0.34612,0.49642 -0.79166,1.58326 -0.89636,2.17097 z m 1.62896,-1.66046 c 0.35378,-0.50083 0.64703,-0.82299 1.05878,-1.14127 1.75572,-1.37288 4.04742,-1.36649 5.68131,0.008 0.24547,0.21037 0.35452,0.33566 0.31352,0.36512 -0.0364,0.0303 -0.66331,0.48026 -1.40279,1.00282 -1.17426,0.83912 -1.35898,0.94947 -1.48099,0.90683 -0.0796,-0.0277 -0.22761,-0.048 -0.33561,-0.0482 -0.18161,0.005 -0.19359,-0.0109 -0.45072,-0.54405 -0.32145,-0.66728 -0.65054,-1.20039 -0.90669,-1.44561 -0.1649,-0.16942 -0.20162,-0.1827 -0.29724,-0.13479 -0.0954,0.0479 -0.10983,0.0868 -0.0925,0.32962 0.0135,0.36654 0.1883,0.97679 0.46519,1.66634 0.22061,0.55111 0.22511,0.57146 0.10538,0.71679 -0.31476,0.396 -0.36508,0.90239 -0.14094,1.4114 0.22451,0.50859 0.62251,0.79112 1.10973,0.78612 0.18163,-0.005 0.19352,0.0115 0.45072,0.54407 0.32091,0.66759 0.65046,1.2004 0.90667,1.44561 0.16489,0.16943 0.20165,0.1827 0.29748,0.13502 0.0955,-0.048 0.10983,-0.0867 0.0925,-0.32966 -0.0135,-0.36658 -0.1883,-0.9768 -0.46519,-1.66635 -0.22062,-0.55111 -0.2251,-0.57142 -0.10485,-0.7171 0.0689,-0.0882 0.14871,-0.22286 0.17942,-0.30557 0.0475,-0.12692 0.24484,-0.20795 1.5957,-0.63586 0.85487,-0.26972 1.58033,-0.49767 1.62582,-0.50641 0.0481,-0.0117 0.0675,0.15525 0.0635,0.49009 -0.0506,2.21681 -1.51024,4.09838 -3.62331,4.65996 -1.93533,0.51752 -3.94482,-0.34532 -4.89715,-2.08771 -0.50145,-0.92365 -0.6647,-1.93569 -0.49334,-3.0428 0.0744,-0.47362 0.47441,-1.46996 0.74569,-1.86227 z m 6.56722,-17.68284 c 0.53477,-0.76225 1.13411,-1.29599 1.8972,-1.67308 2.29501,-1.14704 4.96241,-0.21735 5.97693,2.08333 0.60982,1.3735 0.5054,3.00977 -0.26624,4.31366 -0.30167,0.50634 -0.79633,1.09541 -0.85718,1.01791 -0.0251,-0.0281 -0.43303,-0.65634 -0.91431,-1.39229 -0.75428,-1.16191 -0.85895,-1.34798 -0.81172,-1.47506 0.0308,-0.0831 0.0576,-0.2357 0.0627,-0.3465 0.003,-0.18602 0.0201,-0.19897 0.55246,-0.48759 0.66705,-0.36037 1.20297,-0.72298 1.45443,-0.9972 0.1733,-0.17691 0.18769,-0.21548 0.14552,-0.3112 -0.0427,-0.0956 -0.0797,-0.10859 -0.31806,-0.0796 -0.3588,0.0304 -0.96302,0.23855 -1.64957,0.55455 -0.5486,0.25213 -0.56872,0.2575 -0.70508,0.14149 -0.37208,-0.30437 -0.8647,-0.33265 -1.3724,-0.0792 -0.50737,0.25381 -0.80178,0.6753 -0.81956,1.17485 -0.003,0.18598 -0.0199,0.1991 -0.55243,0.48762 -0.66705,0.36037 -1.20298,0.72295 -1.45442,0.99722 -0.17331,0.17686 -0.18771,0.21548 -0.14554,0.31115 0.0425,0.0956 0.0798,0.10864 0.3178,0.0796 0.3588,-0.0303 0.96299,-0.23853 1.64953,-0.5546 0.54861,-0.25215 0.56871,-0.25749 0.70523,-0.14087 0.0829,0.0667 0.2109,0.142 0.29058,0.16969 0.12182,0.0427 0.19178,0.24153 0.54898,1.60193 0.22087,0.85702 0.40971,1.59062 0.41645,1.63696 0.0209,0.10675 -0.6927,0.13905 -1.27978,0.0593 -1.30485,-0.18018 -2.47403,-0.99965 -3.1231,-2.18696 -0.50148,-0.92363 -0.66471,-1.93568 -0.49335,-3.04284 0.0732,-0.473 0.47343,-1.46963 0.74469,-1.86193 z m 10.25693,23.84694 c 0.3176,-0.53208 0.79633,-1.09546 0.86067,-1.01055 0.0278,0.036 0.43824,0.65822 0.91643,1.38653 0.75432,1.16193 0.8537,1.34613 0.80655,1.4732 -0.0309,0.0829 -0.0576,0.23569 -0.0626,0.3462 -0.003,0.18601 -0.02,0.19906 -0.55264,0.48774 -0.66711,0.36032 -1.20293,0.7231 -1.45443,0.99723 -0.17333,0.1769 -0.18766,0.21547 -0.14553,0.31118 0.0425,0.0956 0.0798,0.10857 0.31776,0.0795 0.35885,-0.0304 0.96302,-0.23855 1.64958,-0.55458 0.54903,-0.25162 0.56871,-0.25747 0.70524,-0.14089 0.78381,0.64787 2.15917,-0.04 2.19192,-1.09585 0.003,-0.18603 0.0199,-0.19904 0.55246,-0.4876 0.66705,-0.36033 1.20299,-0.72296 1.45442,-0.99717 0.17332,-0.1769 0.18768,-0.21545 0.14551,-0.31117 -0.0425,-0.0957 -0.0798,-0.10857 -0.31778,-0.0795 -0.35905,0.0304 -0.96304,0.23855 -1.64952,0.55463 -0.54861,0.25212 -0.56875,0.25747 -0.70525,0.14088 -0.0828,-0.0667 -0.21093,-0.14201 -0.29055,-0.16973 -0.12182,-0.0427 -0.18977,-0.24698 -0.54495,-1.61315 -0.22626,-0.85879 -0.42041,-1.59421 -0.42384,-1.63327 -0.0176,-0.0996 0.72444,-0.1284 1.28301,-0.052 1.43504,0.20045 2.68391,1.16039 3.28662,2.53735 0.86517,1.96168 0.24611,4.35453 -1.474,5.69618 -1.74421,1.35807 -4.02959,1.36655 -5.65574,0.0197 -1.66044,-1.38388 -2.0466,-3.9401 -0.89333,-5.8848 z m 6.71367,-17.93157 c 0.5345,-0.76234 1.13435,-1.29589 1.89721,-1.67304 1.92729,-0.96353 4.16827,-0.4818 5.43546,1.17052 1.54547,1.99959 1.11998,5.01549 -0.92998,6.6164 -1.75573,1.37289 -4.04744,1.36642 -5.68132,-0.008 -0.24545,-0.21039 -0.35453,-0.33566 -0.31355,-0.36513 0.0364,-0.0301 0.6633,-0.48024 1.40492,-1.00819 1.17224,-0.83356 1.35693,-0.94396 1.47888,-0.9014 0.0797,0.0276 0.22765,0.048 0.33565,0.0482 0.18158,-0.005 0.19356,0.0109 0.46043,0.56645 0.30956,0.65049 0.67819,1.22244 0.92044,1.45655 0.14837,0.13299 0.18323,0.15154 0.27375,0.1014 0.0955,-0.048 0.1098,-0.0867 0.0925,-0.32962 -0.0136,-0.36687 -0.18832,-0.97681 -0.4652,-1.66635 -0.22063,-0.5511 -0.22513,-0.57143 -0.10544,-0.71675 0.31478,-0.39602 0.36511,-0.90242 0.14096,-1.41142 -0.22452,-0.50861 -0.62252,-0.79113 -1.10979,-0.78615 -0.18161,0.005 -0.19351,-0.0109 -0.45066,-0.54404 -0.32088,-0.66763 -0.65046,-1.20046 -0.90668,-1.44567 -0.16489,-0.16942 -0.20191,-0.18234 -0.29722,-0.13486 -0.0931,0.0432 -0.10234,0.083 -0.10135,0.28911 0.0148,0.34832 0.19164,1.01559 0.46424,1.68489 0.23032,0.5733 0.23502,0.59344 0.11522,0.73905 -0.0689,0.0882 -0.14877,0.22282 -0.17958,0.30582 -0.0476,0.1269 -0.25012,0.20606 -1.60124,0.63392 -0.8496,0.27172 -1.5771,0.50501 -1.61541,0.51051 -0.0903,0.0197 -0.0911,-0.70575 -0.008,-1.2696 0.0742,-0.47367 0.47402,-1.47042 0.74552,-1.86263 z"
       id="path1375"
       style="stroke-width:0.00299988" />
    <path
       d="m 297.87367,263.56496 c -1.19796,0.2191 -2.14315,0.70203 -2.99245,1.54459 -0.74543,0.73009 -1.2182,1.56116 -1.46274,2.56616 -0.13049,0.53346 -0.10337,1.86982 0.0489,2.4032 0.29812,1.04435 0.7921,1.84737 1.62712,2.61649 0.60671,0.56152 1.19208,0.92622 1.91676,1.20107 0.73065,0.26938 1.14446,0.3366 2.06413,0.33638 1.07265,-1.5e-4 1.30768,-0.0508 2.61766,-0.56746 0.0811,-0.0293 1.13468,1.29668 1.31274,1.66194 0.12846,0.24737 0.13104,0.34252 0.17525,2.53238 0.0445,2.18973 0.0464,2.28519 -0.0724,2.53228 -0.16363,0.36471 -1.16216,1.69046 -1.24544,1.66207 -1.33079,-0.5167 -1.56772,-0.56697 -2.64072,-0.56688 -1.20245,1.8e-4 -2.02323,0.21927 -2.99017,0.79765 -0.55891,0.33174 -1.40905,1.15663 -1.74594,1.69584 -0.58863,0.93166 -0.802,1.71816 -0.77871,2.86378 0.0182,0.89862 0.0966,1.27478 0.42419,2.01586 0.58134,1.31937 1.83041,2.47599 3.24399,3.00367 0.73066,0.2694 1.1445,0.33663 2.06414,0.3364 1.20242,-2.8e-4 2.0232,-0.21927 2.99014,-0.79765 0.55898,-0.33175 1.40849,-1.15737 1.74593,-1.69585 0.5878,-0.93221 0.80202,-1.71813 0.77874,-2.8638 -0.0207,-1.02183 -0.0785,-1.24672 -0.64622,-2.50443 -0.0308,-0.0786 1.3286,-1.05011 1.68515,-1.20179 0.35656,-0.15167 0.86802,-0.21351 1.39369,-0.16295 0.56698,0.0562 2.02884,0.056 2.59351,-2.4e-4 0.52369,-0.0505 1.03763,0.0109 1.40031,0.16274 0.14299,0.061 0.60228,0.34257 1.00854,0.62369 0.57944,0.39924 0.74195,0.53305 0.70773,0.60646 -0.45042,1.02775 -0.60568,1.81943 -0.53986,2.72912 0.10558,1.42613 0.68305,2.57729 1.78839,3.59344 0.78072,0.71322 1.63909,1.16183 2.6931,1.41468 0.56269,0.13481 1.96553,0.13454 2.52282,-2.7e-4 1.06745,-0.25836 1.91864,-0.71924 2.69338,-1.4661 0.76879,-0.75258 1.23567,-1.57212 1.48596,-2.59429 0.13049,-0.53348 0.10327,-1.86978 -0.0489,-2.40321 -0.28557,-0.99953 -0.77346,-1.80785 -1.53718,-2.53799 -1.08762,-1.0332 -2.30702,-1.56062 -3.80568,-1.63363 -0.9559,-0.0449 -1.78377,0.11816 -2.85346,0.56746 -0.0756,0.0345 -0.2204,-0.11833 -0.64984,-0.66262 -0.3026,-0.38175 -0.60636,-0.81398 -0.67398,-0.9487 -0.16599,-0.3426 -0.23489,-0.82539 -0.19851,-1.3588 0.0469,-0.57832 0.0218,-1.8361 -0.049,-2.41459 -0.058,-0.53346 -0.009,-1.01627 0.14325,-1.35882 0.1528,-0.34239 1.14535,-1.65679 1.22838,-1.6286 1.33075,0.51671 1.56764,0.56696 2.64033,0.56681 1.20248,-1.7e-4 2.02331,-0.2192 2.99019,-0.79759 0.55895,-0.33175 1.40844,-1.15741 1.74594,-1.69582 0.58795,-0.93246 0.80196,-1.71853 0.77875,-2.86386 -0.023,-1.12868 -0.22537,-1.80236 -0.84056,-2.7793 -0.35915,-0.57275 -1.2553,-1.4259 -1.86951,-1.77946 -0.99644,-0.57778 -1.81984,-0.79704 -3.02257,-0.79692 -1.20241,1.8e-4 -2.02323,0.21925 -2.99014,0.79761 -0.55891,0.33176 -1.40838,1.15747 -1.74592,1.69586 -0.58783,0.93222 -0.80211,1.71814 -0.77875,2.86387 0.0207,1.02177 0.0785,1.2467 0.64625,2.5041 0.031,0.0787 -1.34013,1.05573 -1.72016,1.21875 -0.25713,0.11255 -0.36302,0.1181 -2.65602,0.11826 -2.29298,2.5e-4 -2.39941,-0.005 -2.66081,-0.11764 -0.38674,-0.16234 -1.79758,-1.13963 -1.76969,-1.2183 0.51701,-1.2577 0.5652,-1.48248 0.54437,-2.5043 -0.0177,-0.87603 -0.0965,-1.26892 -0.39353,-1.95953 -0.29067,-0.66246 -0.69713,-1.23516 -1.26829,-1.77964 -0.80549,-0.76907 -1.62833,-1.22402 -2.70648,-1.48756 -0.58601,-0.15101 -1.75983,-0.19075 -2.34725,-0.0844 z m 2.12375,0.94883 c 0.59273,0.15719 0.99687,0.31976 1.43849,0.59522 1.89839,1.16764 2.69055,3.31809 1.97109,5.32842 -0.11135,0.30354 -0.19168,0.44907 -0.23305,0.42109 -0.0427,-0.0202 -0.68119,-0.45465 -1.42868,-0.96575 -1.19553,-0.80846 -1.36331,-0.94316 -1.36604,-1.07212 -0.001,-0.0842 -0.0343,-0.22999 -0.0717,-0.33142 -0.0683,-0.16826 -0.0573,-0.18517 0.35298,-0.61197 0.51389,-0.53339 0.899,-1.02756 1.03935,-1.35336 0.10218,-0.21326 0.10157,-0.25234 0.0222,-0.32563 -0.0779,-0.073 -0.11896,-0.0738 -0.3412,0.0281 -0.33873,0.14071 -0.84997,0.51682 -1.40005,1.01637 -0.43943,0.39909 -0.45733,0.40996 -0.6353,0.34821 -0.48094,-0.15696 -0.97307,-0.0281 -1.37209,0.35941 -0.39873,0.38745 -0.52486,0.85907 -0.35045,1.31404 0.0683,0.16836 0.0567,0.18539 -0.35288,0.61206 -0.51382,0.53349 -0.89898,1.02753 -1.03927,1.35342 -0.10208,0.21328 -0.10177,0.25234 -0.0223,0.32595 0.0774,0.0738 0.1189,0.0737 0.3412,-0.0281 0.33872,-0.14074 0.84999,-0.51686 1.40009,-1.01635 0.43942,-0.39909 0.45728,-0.40999 0.63549,-0.34826 0.10723,0.0321 0.2606,0.0621 0.34887,0.0621 0.1355,-5.3e-4 0.28035,0.15693 1.15178,1.2744 0.55047,0.70747 1.0169,1.30808 1.04118,1.34746 0.0315,0.038 -0.12217,0.11717 -0.43718,0.23044 -2.09567,0.72453 -4.36776,0.0116 -5.63007,-1.77362 -1.15911,-1.63401 -1.05012,-3.81816 0.25156,-5.31766 0.69157,-0.79137 1.58307,-1.29715 2.68049,-1.52211 0.46995,-0.0952 1.5432,-0.0672 2.00542,0.0505 z m 18.86298,-0.002 c 0.90083,0.23544 1.60989,0.61153 2.22904,1.19569 1.87427,1.75217 1.93189,4.57609 0.12867,6.32832 -1.07488,1.05026 -2.64562,1.52146 -4.13634,1.25272 -0.57978,-0.10606 -1.30429,-0.36458 -1.25272,-0.44905 0.0167,-0.0336 0.46409,-0.63472 0.98667,-1.34194 0.82664,-1.11159 0.96444,-1.27467 1.09997,-1.27469 0.0887,9.3e-4 0.24097,-0.0281 0.34663,-0.062 0.17523,-0.0623 0.19356,-0.0505 0.64943,0.34806 0.57018,0.49974 1.09703,0.87546 1.44111,1.01645 0.226,0.1012 0.26733,0.10086 0.34233,0.0284 0.0757,-0.0723 0.0739,-0.11246 -0.036,-0.32588 -0.15362,-0.32569 -0.55855,-0.81994 -1.09442,-1.35307 -0.42722,-0.4266 -0.43908,-0.44376 -0.37821,-0.61164 0.15571,-0.45478 0.0108,-0.92641 -0.40371,-1.31406 -0.4147,-0.38716 -0.9122,-0.51641 -1.38676,-0.35899 -0.17521,0.0623 -0.19354,0.0507 -0.64946,-0.34804 -0.57009,-0.49981 -1.09699,-0.87547 -1.44104,-1.01643 -0.22605,-0.10121 -0.26739,-0.10087 -0.34231,-0.0284 -0.0756,0.0723 -0.0745,0.11252 0.0361,0.32559 0.1536,0.32569 0.55857,0.81986 1.09437,1.35306 0.42724,0.42669 0.43912,0.44377 0.37765,0.61207 -0.0329,0.10115 -0.0603,0.24701 -0.0573,0.33152 0.003,0.12907 -0.15907,0.26429 -1.31032,1.07272 -0.72647,0.50539 -1.34848,0.93778 -1.38949,0.96035 -0.0927,0.0571 -0.3715,-0.60093 -0.50129,-1.17896 -0.28552,-1.28594 0.0755,-2.66729 0.96244,-3.68922 0.69163,-0.7914 1.58307,-1.29717 2.68051,-1.5222 0.46893,-0.0961 1.54253,-0.068 2.00475,0.0496 z m -18.78197,17.91974 c 0.60931,0.11284 1.30434,0.36457 1.24704,0.45481 -0.0207,0.0402 -0.46442,0.6401 -0.98056,1.34198 -0.82664,1.11162 -0.96459,1.26902 -1.10013,1.26905 -0.0883,9e-5 -0.24096,0.0281 -0.34636,0.0619 -0.17523,0.0623 -0.19348,0.0507 -0.64966,-0.34812 -0.57011,-0.49984 -1.09693,-0.87554 -1.44106,-1.01645 -0.22646,-0.10042 -0.26729,-0.10086 -0.3424,-0.0284 -0.0755,0.0722 -0.074,0.11246 0.0361,0.32557 0.15367,0.32567 0.55863,0.81989 1.09438,1.35308 0.42739,0.42678 0.43914,0.44376 0.3777,0.61202 -0.33454,0.96034 0.78942,2.01012 1.79053,1.67316 0.17526,-0.0623 0.19345,-0.0507 0.64949,0.34808 0.57006,0.4998 1.09698,0.87543 1.44103,1.01637 0.22601,0.1012 0.26736,0.10086 0.34234,0.0284 0.0757,-0.0723 0.0742,-0.11248 -0.0361,-0.32554 -0.15365,-0.32602 -0.55852,-0.82 -1.09438,-1.35313 -0.42726,-0.42661 -0.43912,-0.44381 -0.37764,-0.61206 0.0328,-0.10107 0.0603,-0.24702 0.0573,-0.33159 -0.003,-0.12908 0.1655,-0.26384 1.3224,-1.0726 0.7259,-0.51167 1.34795,-0.94931 1.38355,-0.96591 0.0879,-0.0499 0.37297,0.63418 0.4955,1.18462 0.31186,1.41501 -0.1531,2.91997 -1.23392,3.96449 -1.53761,1.49418 -3.99607,1.74766 -5.85293,0.60207 -1.88048,-1.16209 -2.6843,-3.30144 -1.98811,-5.29483 0.71879,-2.03852 2.98068,-3.29067 5.20526,-2.88686 z m 19.14711,0.0485 c 0.9008,0.23545 1.60963,0.61251 2.22901,1.1958 1.57431,1.47127 1.90301,3.73965 0.7957,5.50283 -1.33661,2.14479 -4.31148,2.79656 -6.52603,1.4325 -1.89844,-1.16765 -2.69056,-3.31818 -1.97109,-5.32848 0.11134,-0.30344 0.19167,-0.44903 0.23316,-0.42101 0.0426,0.0202 0.68104,0.45462 1.43432,0.96589 1.18959,0.80859 1.35758,0.94302 1.36008,1.07232 0.001,0.0844 0.0343,0.23002 0.0717,0.33139 0.0683,0.16838 0.0573,0.18526 -0.37061,0.62891 -0.50166,0.51696 -0.90978,1.06138 -1.0449,1.36999 -0.0742,0.1849 -0.0785,0.22441 3.8e-4,0.29194 0.0775,0.0737 0.119,0.0737 0.34121,-0.0281 0.33902,-0.14094 0.84998,-0.51685 1.4,-1.01643 0.43946,-0.39909 0.45735,-0.41 0.63535,-0.34818 0.48096,0.15695 0.97307,0.0281 1.37218,-0.3594 0.39866,-0.38742 0.52482,-0.85902 0.35036,-1.31411 -0.0683,-0.16838 -0.0571,-0.18516 0.35296,-0.61197 0.51393,-0.53341 0.89902,-1.02761 1.0394,-1.35341 0.10208,-0.21322 0.10078,-0.25267 0.0223,-0.32561 -0.0723,-0.0731 -0.11319,-0.0673 -0.30629,0.006 -0.32134,0.13524 -0.88532,0.53327 -1.41773,1.02196 -0.4573,0.4154 -0.47438,0.42703 -0.65254,0.36557 -0.10681,-0.033 -0.26062,-0.0621 -0.34917,-0.0621 -0.1358,5.3e-4 -0.2803,-0.16265 -1.15188,-1.28028 -0.55023,-0.70198 -1.02261,-1.30248 -1.04114,-1.33645 -0.0481,-0.0789 0.62969,-0.33148 1.18732,-0.44959 0.46987,-0.0954 1.54346,-0.0678 2.00566,0.0502 z"
       id="path1375-5"
       style="opacity:0.5;stroke-width:0.00299988" />
    <path
       d="m 451.65448,109.40097 c -0.19585,-1.20193 -0.66046,-2.15629 -1.48637,-3.02177 -0.71547,-0.75949 -1.53722,-1.24828 -2.53729,-1.51228 -0.53087,-0.14069 -1.86742,-0.13962 -2.40366,0.002 -1.04981,0.27825 -1.86243,0.756 -2.64754,1.57614 -0.57311,0.59574 -0.94915,1.17391 -1.23804,1.8931 -0.28355,0.72526 -0.35834,1.13782 -0.37634,2.05718 -0.0207,1.07248 0.0257,1.30844 0.51667,2.62821 0.0282,0.0813 -1.31842,1.10935 -1.68714,1.28023 -0.24996,0.12334 -0.34513,0.1239 -2.53527,0.12567 -2.19017,0.002 -2.28574,0.002 -2.53047,-0.12141 -0.36136,-0.17084 -1.66748,-1.19481 -1.63754,-1.27742 0.54243,-1.32056 0.59726,-1.55644 0.61797,-2.62924 0.023,-1.20224 -0.18,-2.02709 -0.73955,-3.00507 -0.32121,-0.56504 -1.12909,-1.43126 -1.66168,-1.77854 -0.91977,-0.60697 -1.70246,-0.83474 -2.8481,-0.83409 -0.89886,6.5e-4 -1.27646,0.0719 -2.02374,0.38509 -1.33041,0.55563 -2.51093,1.78209 -3.06598,3.18517 -0.28353,0.72522 -0.35834,1.13786 -0.37636,2.0572 -0.023,1.20222 0.17998,2.02706 0.73959,3.00501 0.32121,0.56508 1.12979,1.43072 1.66165,1.77854 0.92037,0.60611 1.70248,0.83472 2.84819,0.834 1.02201,-7.3e-4 1.24798,-0.0543 2.51653,-0.59714 0.0786,-0.0305 1.02425,1.34866 1.16888,1.70809 0.14497,0.35933 0.19658,0.872 0.13599,1.39657 -0.0668,0.56581 -0.0954,2.0274 -0.05,2.59303 0.04,0.52461 -0.0306,1.03726 -0.19028,1.39685 -0.0633,0.14202 -0.35414,0.59555 -0.6431,0.99633 -0.41038,0.57156 -0.54765,0.73122 -0.62017,0.6957 -1.01893,-0.47003 -1.8075,-0.64055 -2.71813,-0.59266 -1.4279,0.0781 -2.59011,0.63283 -3.62748,1.71834 -0.72789,0.76704 -1.19333,1.61632 -1.46663,2.66523 -0.14606,0.55981 -0.17257,1.96256 -0.0486,2.52235 0.23768,1.07221 0.68193,1.9322 1.41366,2.72122 0.73765,0.78321 1.54786,1.26594 2.56499,1.536 0.53092,0.14061 1.86742,0.13952 2.4037,-0.002 1.00493,-0.26601 1.82266,-0.73782 2.56736,-1.48767 1.05411,-1.06736 1.60469,-2.27657 1.70734,-3.77316 0.0635,-0.95485 -0.084,-1.78568 -0.51225,-2.86391 -0.0342,-0.0758 0.12254,-0.21809 0.67549,-0.63647 0.38731,-0.2954 0.82568,-0.59025 0.96162,-0.65543 0.34604,-0.15872 0.82991,-0.21836 1.36235,-0.17208 0.57738,0.0579 1.83537,0.0572 2.4151,-0.002 0.53446,-0.048 1.01626,0.0108 1.35578,0.16972 0.33961,0.1589 1.63433,1.17721 1.60443,1.25982 -0.54229,1.32051 -0.59723,1.55631 -0.61788,2.62884 -0.0232,1.20227 0.1799,2.02717 0.73946,3.00507 0.32122,0.56508 1.1299,1.43066 1.66165,1.77849 0.92111,0.60556 1.70277,0.83487 2.84821,0.83414 1.12891,-0.001 1.80636,-0.19032 2.79512,-0.78656 0.57932,-0.34832 1.44994,-1.22738 1.81528,-1.83465 0.59692,-0.98507 0.83223,-1.80402 0.85537,-3.00653 0.023,-1.2022 -0.18002,-2.02713 -0.7396,-3.00502 -0.321,-0.56516 -1.12995,-1.43055 -1.66164,-1.77851 -0.92041,-0.60613 -1.70209,-0.83566 -2.84824,-0.8341 -1.02199,8.3e-4 -1.24799,0.0544 -2.51626,0.59711 -0.0782,0.0319 -1.02956,-1.36038 -1.18519,-1.74344 -0.10724,-0.25939 -0.11094,-0.36529 -0.0666,-2.65788 0.0441,-2.2925 0.0515,-2.39883 0.16879,-2.65799 0.17013,-0.3834 1.17425,-1.77517 1.25236,-1.74574 1.24746,0.54123 1.47125,0.59384 2.49325,0.59286 0.87624,-6.9e-4 1.27059,-0.0719 1.96676,-0.35579 0.668,-0.27773 1.24841,-0.67317 1.80388,-1.23357 0.78419,-0.79078 1.25533,-1.60432 1.53975,-2.67707 0.16198,-0.58311 0.22502,-1.75579 0.12984,-2.34521 z m -0.98976,2.10499 c -0.16915,0.58943 -0.33857,0.9906 -0.62306,1.42665 -1.20429,1.8754 -3.36962,2.62573 -5.36562,1.86747 -0.30133,-0.11714 -0.44516,-0.20044 -0.41668,-0.2409 0.0162,-0.0441 0.46797,-0.67205 0.9935,-1.40945 0.83164,-1.17956 0.96941,-1.34479 1.09834,-1.34508 0.0844,0.002 0.2307,-0.03 0.33283,-0.0652 0.16921,-0.066 0.18639,-0.0531 0.6051,0.36459 0.52301,0.52443 1.00997,0.91866 1.33278,1.06561 0.21088,0.10699 0.25009,0.10699 0.32516,0.0275 0.0755,-0.0756 0.0764,-0.1172 -0.0213,-0.34171 -0.13466,-0.34118 -0.49984,-0.86005 -0.98923,-1.41934 -0.39068,-0.44696 -0.40095,-0.46524 -0.33537,-0.64215 0.16624,-0.47781 0.0469,-0.97235 -0.33323,-1.37868 -0.3794,-0.40637 -0.84902,-0.54099 -1.30692,-0.37603 -0.16924,0.066 -0.18673,0.0524 -0.60517,-0.36463 -0.52311,-0.52434 -1.00993,-0.91871 -1.3328,-1.06555 -0.21089,-0.10689 -0.25019,-0.1069 -0.32545,-0.0286 -0.0762,0.0752 -0.0766,0.11715 0.0213,0.34168 0.13481,0.34118 0.50078,0.85956 0.98927,1.41941 0.39061,0.44701 0.40096,0.46522 0.33558,0.64225 -0.0324,0.10715 -0.0678,0.25922 -0.0695,0.34751 -0.003,0.13544 -0.16221,0.27729 -1.29624,1.12704 -0.71803,0.53671 -1.32758,0.99142 -1.36743,1.01489 -0.0356,0.0346 -0.11413,-0.12504 -0.22192,-0.44156 -0.68381,-2.10933 0.073,-4.36719 1.88244,-5.59462 1.65611,-1.12726 3.83778,-0.97603 5.31179,0.35426 0.77783,0.70678 1.2662,1.60789 1.46996,2.70945 0.0863,0.47168 0.0374,1.54423 -0.0894,2.00403 z m -0.36362,18.85948 c -0.25343,0.89588 -0.64261,1.59773 -1.23869,2.20543 -1.7881,1.84001 -4.61284,1.84243 -6.32964,0.006 -1.02915,-1.09507 -1.46984,-2.6746 -1.17228,-4.15985 0.11692,-0.57766 0.38968,-1.297 0.47265,-1.24402 0.0335,0.0167 0.62583,0.47609 1.32256,1.01262 1.0953,0.84805 1.25563,0.98904 1.25311,1.12448 -0.003,0.0883 0.0232,0.24148 0.0552,0.34776 0.0586,0.17653 0.0466,0.19447 -0.36097,0.64242 -0.51039,0.56066 -0.89651,1.07989 -1.04418,1.42111 -0.10562,0.22403 -0.10551,0.26555 -0.0345,0.3418 0.0699,0.0777 0.10999,0.0773 0.32663,-0.0287 0.3286,-0.14731 0.83081,-0.54224 1.37425,-1.06777 0.43471,-0.41888 0.45219,-0.43033 0.61901,-0.36589 0.45167,0.16462 0.92608,0.0289 1.32169,-0.37814 0.39473,-0.40747 0.53392,-0.90209 0.38573,-1.37956 -0.0585,-0.17644 -0.0466,-0.19461 0.36097,-0.6424 0.51035,-0.56063 0.89648,-1.07985 1.04407,-1.42113 0.10572,-0.22402 0.10639,-0.26516 0.0356,-0.3416 -0.0698,-0.078 -0.11035,-0.0773 -0.3263,0.0287 -0.32861,0.14727 -0.83081,0.54222 -1.37422,1.06767 -0.43487,0.41893 -0.45226,0.43033 -0.61914,0.36603 -0.10082,-0.0341 -0.24595,-0.0646 -0.33033,-0.0636 -0.12921,0.002 -0.26116,-0.16415 -1.04711,-1.33085 -0.49113,-0.73619 -0.91156,-1.36633 -0.93324,-1.40789 -0.0554,-0.0939 0.60805,-0.3597 1.18859,-0.47806 1.29108,-0.26103 2.6653,0.12721 3.66984,1.03379 0.77789,0.70686 1.26622,1.60793 1.46993,2.70956 0.0875,0.47054 0.0381,1.54353 -0.0885,2.00336 z m -17.55232,-19.12576 c -0.12482,0.60695 -0.38962,1.29708 -0.47893,1.23795 -0.0412,-0.0185 -0.63125,-0.47639 -1.32269,-1.00645 -1.09547,-0.84791 -1.25034,-0.9886 -1.24749,-1.12454 0.003,-0.0884 -0.0229,-0.24149 -0.0553,-0.34746 -0.0587,-0.1765 -0.0465,-0.19454 0.36104,-0.64258 0.51041,-0.56067 0.89652,-1.07987 1.04428,-1.42103 0.10474,-0.22448 0.10541,-0.26556 0.0345,-0.34187 -0.0699,-0.0778 -0.11,-0.0773 -0.3262,0.0297 -0.32858,0.1473 -0.83077,0.54225 -1.37417,1.06772 -0.43499,0.41906 -0.45232,0.43037 -0.61914,0.36603 -0.95361,-0.35322 -2.02502,0.7503 -1.70747,1.75781 0.0587,0.1765 0.0466,0.19444 -0.36084,0.64248 -0.51115,0.55998 -0.89657,1.07989 -1.04409,1.42114 -0.10552,0.22398 -0.10541,0.26558 -0.0345,0.34179 0.07,0.0778 0.11018,0.0773 0.32626,-0.0287 0.32889,-0.14742 0.83082,-0.54226 1.37426,-1.06766 0.43479,-0.41899 0.45232,-0.43039 0.61916,-0.36598 0.10067,0.034 0.24585,0.0645 0.33039,0.0638 0.12908,-0.002 0.26083,0.17015 1.0471,1.34264 0.49741,0.73579 0.92306,1.3661 0.9389,1.40209 0.0475,0.0893 -0.64141,0.3603 -1.19388,0.47263 -1.42078,0.28437 -2.9165,-0.2097 -3.93985,-1.31059 -1.464,-1.5663 -1.66989,-4.02923 -0.48849,-5.86349 1.19836,-1.85758 3.35282,-2.61983 5.33233,-1.88516 2.02418,0.7583 3.23227,3.04398 2.78548,5.26026 z m -0.41958,19.14256 c -0.25343,0.89587 -0.64366,1.59744 -1.23878,2.20543 -1.5015,1.54551 -3.77586,1.83017 -5.51725,0.68889 -2.11843,-1.37797 -2.71252,-4.36485 -1.30575,-6.55252 1.20421,-1.87553 3.36972,-2.62578 5.3657,-1.86749 0.30121,0.11713 0.44509,0.20053 0.4166,0.24082 -0.0163,0.0441 -0.46797,0.67199 -0.99376,1.41516 -0.83155,1.17374 -0.96918,1.33905 -1.09847,1.33906 -0.0843,-0.003 -0.2307,0.03 -0.33272,0.0652 -0.16928,0.066 -0.18651,0.0532 -0.62172,-0.38249 -0.50724,-0.51155 -1.04392,-0.92977 -1.34955,-1.07122 -0.18369,-0.0772 -0.22284,-0.0828 -0.29186,-0.005 -0.0755,0.0757 -0.0764,0.11723 0.0214,0.34169 0.13493,0.34148 0.50077,0.85956 0.98927,1.41938 0.39066,0.44694 0.40098,0.46523 0.33546,0.64214 -0.16631,0.47774 -0.0469,0.97231 0.33319,1.37875 0.37928,0.40639 0.8489,0.54102 1.30695,0.37603 0.16938,-0.0659 0.18662,-0.0521 0.60511,0.36457 0.52311,0.52453 1.01005,0.91873 1.33283,1.06575 0.21081,0.10698 0.25087,0.10512 0.32519,0.0275 0.0753,-0.0701 0.0701,-0.11152 -4.9e-4,-0.30636 -0.12883,-0.324 -0.51568,-0.89567 -0.99429,-1.4372 -0.4065,-0.46528 -0.41765,-0.48271 -0.35285,-0.65957 0.0333,-0.10675 0.0678,-0.25925 0.0694,-0.3477 0.003,-0.13589 0.16787,-0.27735 1.30235,-1.127 0.7125,-0.53652 1.32205,-0.99721 1.35634,-1.01514 0.0807,-0.0446 0.3192,0.636 0.42649,1.19583 0.0862,0.47167 0.0378,1.54448 -0.0892,2.00431 z"
       id="path1375-5-6"
       style="opacity:0.5;stroke-width:0.00299988" />
    <path
       style="fill:none;stroke:#000000;stroke-width:2.878;stroke-linecap:butt;stroke-linejoin:miter;stroke-miterlimit:4;stroke-dasharray:none;stroke-opacity:1"
       d="m 379.53764,301.39595 -0.45365,-49.99672"
       id="path1067" />
    <path
       style="fill:none;stroke:#000000;stroke-width:1.00923;stroke-linecap:butt;stroke-linejoin:miter;stroke-miterlimit:4;stroke-dasharray:none;stroke-opacity:1;marker-end:url(#Arrow1Lend)"
       d="m 379.28032,276.82958 -28.03325,0.24834"
       id="path1440" />
    <path
       style="fill:none;stroke:#000000;stroke-width:1.208;stroke-linecap:butt;stroke-linejoin:miter;stroke-miterlimit:4;stroke-dasharray:none;stroke-opacity:1;marker-end:url(#TriangleOutL)"
       d="m 207.35897,389.73987 8.13819,-23.35742"
       id="path8096" />
    <path
       style="opacity:0.5;fill:none;stroke:#000000;stroke-width:1.10827;stroke-linecap:butt;stroke-linejoin:miter;stroke-miterlimit:4;stroke-dasharray:none;stroke-opacity:1;marker-end:url(#TriangleOutL-2)"
       d="m 312.71416,278.28059 24.73455,-0.0139"
       id="path8096-1" />
    <path
       style="opacity:0.5;fill:none;stroke:#000000;stroke-width:1.10827;stroke-linecap:butt;stroke-linejoin:miter;stroke-miterlimit:4;stroke-dasharray:none;stroke-opacity:1;marker-end:url(#TriangleOutL-27)"
       d="m 437.42088,114.6707 -0.22719,24.73349"
       id="path8096-9" />
    <text
       xml:space="preserve"
       id="text10289"
       style="font-size:14.6667px;line-height:1.25;font-family:sans-serif;white-space:pre;shape-inside:url(#rect10291)"
       transform="translate(-20.104559,34.702891)"><tspan
         x="242.67969"
         y="333.60158"
         id="tspan72201"><tspan
           style="font-weight:bold;-inkscape-font-specification:'sans-serif Bold'"
           id="tspan72197">x</tspan><tspan
           style="font-size:65%;baseline-shift:sub"
           id="tspan72199">b</tspan></tspan></text>
    <text
       xml:space="preserve"
       id="text26515"
       style="font-size:14.6667px;line-height:1.25;font-family:sans-serif;white-space:pre;shape-inside:url(#rect26517)"
       transform="translate(-58.695156,8.7888003)"><tspan
         x="290.54102"
         y="341.1797"
         id="tspan72207"><tspan
           style="font-weight:bold;-inkscape-font-specification:'sans-serif Bold';fill:#008000"
           id="tspan72203">a</tspan><tspan
           style="font-size:65%;baseline-shift:sub;fill:#008000"
           id="tspan72205">1</tspan></tspan></text>
    <text
       xml:space="preserve"
       id="text26515-6"
       style="font-size:14.6667px;line-height:1.25;font-family:sans-serif;white-space:pre;shape-inside:url(#rect26517-3)"
       transform="translate(66.480337,-76.998518)"><tspan
         x="290.54102"
         y="341.1797"
         id="tspan72213"><tspan
           style="font-weight:bold;-inkscape-font-specification:'sans-serif Bold'"
           id="tspan72209">n</tspan><tspan
           style="font-size:65%;baseline-shift:sub"
           id="tspan72211">1</tspan></tspan></text>
    <text
       xml:space="preserve"
       id="text26515-6-5"
       style="font-size:14.6667px;line-height:1.25;font-family:sans-serif;white-space:pre;shape-inside:url(#rect26517-3-16)"
       transform="translate(111.5472,-70.194694)"><tspan
         x="290.54102"
         y="341.1797"
         id="tspan72215">D</tspan></text>
    <text
       xml:space="preserve"
       id="text26515-6-5-6"
       style="font-size:14.6667px;line-height:1.25;font-family:sans-serif;white-space:pre;shape-inside:url(#rect26517-3-16-9)"
       transform="translate(150.55536,-130.50142)"><tspan
         x="290.54102"
         y="341.1797"
         id="tspan72217">D</tspan></text>
    <text
       xml:space="preserve"
       id="text26515-6-0"
       style="font-size:14.6667px;line-height:1.25;font-family:sans-serif;white-space:pre;shape-inside:url(#rect26517-3-1);fill:#002fda;fill-opacity:1"
       transform="translate(65.988834,-108.53481)"><tspan
         x="290.54102"
         y="341.1797"
         id="tspan72223"><tspan
           style="font-weight:bold;-inkscape-font-specification:'sans-serif Bold'"
           id="tspan72219">d</tspan><tspan
           style="font-size:65%;baseline-shift:sub"
           id="tspan72221">1</tspan></tspan></text>
    <text
       xml:space="preserve"
       id="text26515-6-0-3"
       style="font-size:14.6667px;line-height:1.25;font-family:sans-serif;white-space:pre;shape-inside:url(#rect26517-3-1-6);fill:#002fda;fill-opacity:1"
       transform="translate(183.35729,-167.32159)"><tspan
         x="290.54102"
         y="341.1797"
         id="tspan72229"><tspan
           style="font-weight:bold;-inkscape-font-specification:'sans-serif Bold'"
           id="tspan72225">d</tspan><tspan
           style="font-size:65%;baseline-shift:sub"
           id="tspan72227">2</tspan></tspan></text>
    <text
       xml:space="preserve"
       id="text26515-6-6"
       style="font-size:14.6667px;line-height:1.25;font-family:sans-serif;white-space:pre;shape-inside:url(#rect26517-3-0)"
       transform="translate(156.69776,-172.3322)"><tspan
         x="290.54102"
         y="341.1797"
         id="tspan72235"><tspan
           style="font-weight:bold;-inkscape-font-specification:'sans-serif Bold'"
           id="tspan72231">n</tspan><tspan
           style="font-size:65%;baseline-shift:sub"
           id="tspan72233">2</tspan></tspan></text>
    <path
       style="fill:none;stroke:#000000;stroke-width:2.487;stroke-linecap:butt;stroke-linejoin:miter;stroke-miterlimit:4;stroke-dasharray:14.922, 14.922;stroke-dashoffset:0;stroke-opacity:1"
       d="m 221.91651,385.07732 89.10494,-44.90273 3.20083,-12.19936 -1.00847,-5.95846 -0.55119,-7.3292 0.67731,-4.94051 1.02067,-1.97501 -0.99583,-4.52316 0.74148,-14.03373 13.46971,-61.27299 c 0,0 11.59176,-48.58078 12.04893,-54.51379 0.45717,-5.93302 6.96012,-27.75703 6.96012,-27.75703 l 6.05878,-8.17538 13.05232,-17.26593 32.83227,4.87602 25.6556,-3.28954 14.9723,0.82734"
       id="path48086"
       sodipodi:nodetypes="ccccccccccscccccc" />
    <path
       style="fill:none;stroke:#008000;stroke-width:0.727865px;stroke-linecap:butt;stroke-linejoin:miter;stroke-opacity:1;marker-end:url(#Arrow2Lend)"
       d="m 209.09657,387.53105 c 51.42511,-29.42327 51.42511,-29.42327 51.42511,-29.42327"
       id="path48920" />
    <text
       xml:space="preserve"
       id="text26515-6-0-0"
       style="font-size:14.6667px;line-height:1.25;font-family:sans-serif;white-space:pre;shape-inside:url(#rect26517-3-1-9);fill:#002fda;fill-opacity:1"
       transform="translate(0.17202401,40.762925)"><tspan
         x="290.54102"
         y="341.1797"
         id="tspan72241"><tspan
           style="font-weight:bold;-inkscape-font-specification:'sans-serif Bold'"
           id="tspan72237">d</tspan><tspan
           style="font-size:65%;baseline-shift:sub"
           id="tspan72239">0</tspan></tspan></text>
    <path
       style="fill:none;stroke:#000000;stroke-width:1;stroke-linecap:butt;stroke-linejoin:miter;stroke-miterlimit:4;stroke-dasharray:6, 6;stroke-dashoffset:0;stroke-opacity:1"
       d="m 379.3311,276.78228 h 60.73281"
       id="path42840" />
    <path
       style="fill:none;stroke:#000000;stroke-width:1;stroke-linecap:butt;stroke-linejoin:miter;stroke-miterlimit:4;stroke-dasharray:6, 6;stroke-dashoffset:0;stroke-opacity:1"
       d="m 438.07267,178.46483 v 56.25251"
       id="path42842" />
    <path
       style="fill:none;stroke:#002fda;stroke-width:1.771;stroke-linecap:butt;stroke-linejoin:miter;stroke-miterlimit:4;stroke-dasharray:none;stroke-opacity:1;marker-end:"
       d="m 313.38184,241.68668 h 65.44093"
       id="path67737" />
    <path
       style="fill:none;stroke:#002fda;stroke-width:1.7;stroke-linecap:butt;stroke-linejoin:miter;stroke-miterlimit:4;stroke-dasharray:none;stroke-opacity:1;marker-end:"
       d="m 471.6836,178.46484 v -55.5058"
       id="path68030" />
    <path
       style="fill:none;stroke:#002fda;stroke-width:1.99222;stroke-linecap:butt;stroke-linejoin:miter;stroke-miterlimit:4;stroke-dasharray:none;stroke-opacity:1"
       d="m 314.11801,235.21515 v 12.81861"
       id="path68542" />
    <path
       style="fill:none;stroke:#002fda;stroke-width:1.99222;stroke-linecap:butt;stroke-linejoin:miter;stroke-miterlimit:4;stroke-dasharray:none;stroke-opacity:1"
       d="m 378.70885,235.27737 v 12.81861"
       id="path68542-1" />
    <path
       style="fill:none;stroke:#002fda;stroke-width:1.99222;stroke-linecap:butt;stroke-linejoin:miter;stroke-miterlimit:4;stroke-dasharray:none;stroke-opacity:1"
       d="m 465.18901,178.42239 h 12.81861"
       id="path68542-1-2" />
    <path
       style="fill:none;stroke:#002fda;stroke-width:1.99222;stroke-linecap:butt;stroke-linejoin:miter;stroke-miterlimit:4;stroke-dasharray:none;stroke-opacity:1"
       d="m 465.27703,123.90566 h 12.81861"
       id="path68542-1-2-5" />
    <path
       style="fill:none;stroke:#002fda;stroke-width:1.7;stroke-linecap:butt;stroke-linejoin:miter;stroke-miterlimit:4;stroke-dasharray:none;stroke-opacity:1"
       d="M 223.838,403.58771 382.24012,307.66644"
       id="path68776" />
    <path
       style="fill:none;stroke:#002fda;stroke-width:1.7;stroke-linecap:butt;stroke-linejoin:miter;stroke-miterlimit:4;stroke-dasharray:none;stroke-opacity:1"
       d="m 385.76332,313.2388 -6.50264,-10.82737"
       id="path68778" />
  </g>
</svg>
